<svg id="Component_116_2" data-name="Component 116 – 2" xmlns="http://www.w3.org/2000/svg" width="24" height="24" viewBox="0 0 24 24">
  <path id="Icon_ionic-md-arrow-round-back" data-name="Icon ionic-md-arrow-round-back" d="M22.595,13.4H11.3l4.382-4.192a1.746,1.746,0,0,0,0-2.387,1.561,1.561,0,0,0-2.281,0L6.1,13.9a1.608,1.608,0,0,0-.475,1.183V15.1A1.608,1.608,0,0,0,6.1,16.286l7.292,7.075a1.561,1.561,0,0,0,2.281,0,1.746,1.746,0,0,0,0-2.387L11.29,16.783h11.3a1.653,1.653,0,0,0,1.616-1.69A1.635,1.635,0,0,0,22.595,13.4Z" transform="translate(-2.625 -3.33)"/>
  <rect id="Rectangle_3690" data-name="Rectangle 3690" width="24" height="24" fill="rgba(255,255,255,0)"/>
</svg>
